<svg width="126" height="126" viewBox="0 0 126 126" fill="none" xmlns="http://www.w3.org/2000/svg">
<path fill-rule="evenodd" clip-rule="evenodd" d="M72.7279 47.2721L60 0L47.2721 47.2721L0 60L47.2721 72.7279L60 120L62.1923 111.858L62.818 114.182L64.7492 113.662L63.2279 108.012L72.7279 72.7279L108.012 63.2279L113.662 64.7492L114.182 62.818L111.858 62.1923L120 60L72.7279 47.2721ZM111.858 62.1923L106.303 60.6967L105.783 62.6279L108.012 63.2279L111.858 62.1923ZM63.2279 108.012L62.6279 105.783L60.6967 106.303L62.1923 111.858L63.2279 108.012ZM67.0607 9.93934L67.0067 9.95388L66.8706 10.4593L66 10.2249L65.1294 10.4593L64.9933 9.95388L64.9393 9.93934L66 6L67.0607 9.93934ZM69.182 17.818L71.3033 25.6967L69.3721 26.2167L67.2508 18.338L69.182 17.818ZM73.4246 33.5754L75.5459 41.4541L73.6147 41.974L71.4934 34.0954L73.4246 33.5754ZM77.6673 49.3327L78.7279 53.2721L82.6673 54.3327L82.1473 56.264L77.0961 54.9039L75.736 49.8527L77.6673 49.3327ZM90.5459 56.4541L98.4246 58.5754L97.9046 60.5066L90.026 58.3853L90.5459 56.4541ZM122.046 64.9933L122.061 64.9393L126 66L122.061 67.0607L122.046 67.0067L121.541 66.8706L121.775 66L121.541 65.1294L122.046 64.9933ZM114.182 69.182L106.303 71.3033L105.783 69.3721L113.662 67.2508L114.182 69.182ZM98.4246 73.4246L90.5459 75.5459L90.026 73.6147L97.9046 71.4934L98.4246 73.4246ZM82.6673 77.6673L78.7279 78.7279L77.6673 82.6673L75.736 82.1473L77.0961 77.0961L82.1473 75.736L82.6673 77.6673ZM75.5459 90.5459L73.4246 98.4246L71.4934 97.9046L73.6147 90.026L75.5459 90.5459ZM71.3033 106.303L69.182 114.182L67.2508 113.662L69.3721 105.783L71.3033 106.303ZM67.0067 122.046L67.0607 122.061L66 126L64.9393 122.061L64.9933 122.046L65.1294 121.541L66 121.775L66.8706 121.541L67.0067 122.046ZM58.5754 98.4246L56.4541 90.5459L58.3853 90.026L60.5066 97.9046L58.5754 98.4246ZM54.3327 82.6673L53.2721 78.7279L49.3327 77.6673L49.8527 75.736L54.9039 77.0961L56.264 82.1473L54.3327 82.6673ZM41.4541 75.5459L33.5754 73.4246L34.0954 71.4934L41.974 73.6147L41.4541 75.5459ZM25.6967 71.3033L17.818 69.182L18.338 67.2508L26.2167 69.3721L25.6967 71.3033ZM9.95388 67.0067L9.93934 67.0607L6 66L9.93934 64.9393L9.95388 64.9933L10.4593 65.1294L10.2249 66L10.4593 66.8706L9.95388 67.0067ZM17.818 62.818L25.6967 60.6967L26.2167 62.6279L18.338 64.7492L17.818 62.818ZM33.5754 58.5754L41.4541 56.4541L41.974 58.3853L34.0954 60.5066L33.5754 58.5754ZM49.3327 54.3327L53.2721 53.2721L54.3327 49.3327L56.264 49.8527L54.9039 54.9039L49.8527 56.264L49.3327 54.3327ZM56.4541 41.4541L58.5754 33.5754L60.5066 34.0954L58.3853 41.974L56.4541 41.4541ZM60.6967 25.6967L62.818 17.818L64.7492 18.338L62.6279 26.2167L60.6967 25.6967Z" fill="white"/>
</svg>
